<svg width="78" height="36" viewBox="0 0 78 36" fill="none" xmlns="http://www.w3.org/2000/svg">
<path d="M34.8788 17.408C35.8228 17.584 36.5988 18.056 37.2068 18.824C37.8148 19.592 38.1188 20.472 38.1188 21.464C38.1188 22.36 37.8948 23.152 37.4468 23.84C37.0148 24.512 36.3828 25.04 35.5508 25.424C34.7188 25.808 33.7348 26 32.5988 26H25.3748V9.248H32.2868C33.4228 9.248 34.3988 9.432 35.2148 9.8C36.0468 10.168 36.6708 10.68 37.0868 11.336C37.5188 11.992 37.7348 12.736 37.7348 13.568C37.7348 14.544 37.4708 15.36 36.9427 16.016C36.4308 16.672 35.7428 17.136 34.8788 17.408ZM28.7348 16.16H31.8068C32.6068 16.16 33.2228 15.984 33.6548 15.632C34.0868 15.264 34.3028 14.744 34.3028 14.072C34.3028 13.4 34.0868 12.88 33.6548 12.512C33.2228 12.144 32.6068 11.96 31.8068 11.96H28.7348V16.16ZM32.1188 23.264C32.9348 23.264 33.5668 23.072 34.0148 22.688C34.4788 22.304 34.7108 21.76 34.7108 21.056C34.7108 20.336 34.4708 19.776 33.9908 19.376C33.5108 18.96 32.8628 18.752 32.0468 18.752H28.7348V23.264H32.1188ZM44.1566 8.24V26H40.7966V8.24H44.1566ZM53.3803 26.216C52.1003 26.216 50.9483 25.936 49.9243 25.376C48.9003 24.8 48.0923 23.992 47.5003 22.952C46.9243 21.912 46.6363 20.712 46.6363 19.352C46.6363 17.992 46.9323 16.792 47.5243 15.752C48.1323 14.712 48.9563 13.912 49.9963 13.352C51.0363 12.776 52.1963 12.488 53.4763 12.488C54.7563 12.488 55.9163 12.776 56.9563 13.352C57.9963 13.912 58.8123 14.712 59.4043 15.752C60.0123 16.792 60.3163 17.992 60.3163 19.352C60.3163 20.712 60.0043 21.912 59.3803 22.952C58.7723 23.992 57.9403 24.8 56.8843 25.376C55.8443 25.936 54.6763 26.216 53.3803 26.216ZM53.3803 23.288C53.9883 23.288 54.5563 23.144 55.0843 22.856C55.6283 22.552 56.0603 22.104 56.3803 21.512C56.7003 20.92 56.8603 20.2 56.8603 19.352C56.8603 18.088 56.5243 17.12 55.8523 16.448C55.1963 15.76 54.3883 15.416 53.4283 15.416C52.4683 15.416 51.6603 15.76 51.0043 16.448C50.3643 17.12 50.0443 18.088 50.0443 19.352C50.0443 20.616 50.3563 21.592 50.9803 22.28C51.6203 22.952 52.4203 23.288 53.3803 23.288ZM67.989 12.488C68.981 12.488 69.853 12.688 70.605 13.088C71.357 13.472 71.949 13.976 72.381 14.6V12.704H75.765V26.096C75.765 27.328 75.517 28.424 75.021 29.384C74.525 30.36 73.781 31.128 72.789 31.688C71.797 32.264 70.597 32.552 69.189 32.552C67.301 32.552 65.749 32.112 64.533 31.232C63.333 30.352 62.653 29.152 62.493 27.632H65.829C66.005 28.24 66.381 28.72 66.957 29.072C67.549 29.44 68.261 29.624 69.093 29.624C70.069 29.624 70.861 29.328 71.469 28.736C72.077 28.16 72.381 27.28 72.381 26.096V24.032C71.949 24.656 71.349 25.176 70.581 25.592C69.829 26.008 68.965 26.216 67.989 26.216C66.869 26.216 65.845 25.928 64.917 25.352C63.989 24.776 63.253 23.968 62.709 22.928C62.181 21.872 61.917 20.664 61.917 19.304C61.917 17.96 62.181 16.768 62.709 15.728C63.253 14.688 63.981 13.888 64.893 13.328C65.821 12.768 66.853 12.488 67.989 12.488ZM72.381 19.352C72.381 18.536 72.221 17.84 71.901 17.264C71.581 16.672 71.149 16.224 70.605 15.92C70.061 15.6 69.477 15.44 68.853 15.44C68.229 15.44 67.653 15.592 67.125 15.896C66.597 16.2 66.165 16.648 65.829 17.24C65.509 17.816 65.349 18.504 65.349 19.304C65.349 20.104 65.509 20.808 65.829 21.416C66.165 22.008 66.597 22.464 67.125 22.784C67.669 23.104 68.245 23.264 68.853 23.264C69.477 23.264 70.061 23.112 70.605 22.808C71.149 22.488 71.581 22.04 71.901 21.464C72.221 20.872 72.381 20.168 72.381 19.352Z" fill="#F2F2F2"/>
<path d="M16.2222 11H3.77778C2.79594 11 2 11.6964 2 12.5556V23.4444C2 24.3036 2.79594 25 3.77778 25H16.2222C17.2041 25 18 24.3036 18 23.4444V12.5556C18 11.6964 17.2041 11 16.2222 11Z" stroke="white" stroke-width="2" stroke-linecap="round" stroke-linejoin="round"/>
<path d="M10 11V17L12.5 14.75L15 17V11" stroke="white" stroke-width="2" stroke-linecap="round" stroke-linejoin="round"/>
</svg>
